<svg xmlns="http://www.w3.org/2000/svg" viewBox="0 0 39 50" enable-background="new 0 0 39 50"><path fill="#999" d="M32.5 7.4c0-1-.3-2.3-1.5-3.3.3-1 1.5-2.3 3.9-2.3 2.3 0 3.5 1.5 3.5 4 0 4.9-5.4 8.1-12.1 8.6.1 1.7.1 4.6 0 5.6.6-.3 1.9-.9 3.7-.9 3 0 7.1 2.1 7.1 8.3-.1 14.3-17.3 22.6-27.5 22.6-8.3 0-9.6-4.9-9.6-6.1 0-1 .5-1.9 1.3-1.9.3.7 2.6 3.3 6.3 3.3 3.8 0 6.7-2.4 6.7-6.7 0-4.2-3.5-7.3-3.5-13 0-5.8 4.5-7.1 7-7.1 2.6 0 4.6 1.5 5 1.9.2-1.1.1-4.6 0-6-5.3-.2-12.2-4.2-14.8-7.6-1.7 1.3-3.2 4.3-3.3 6.7-2.2.3-4.7-.4-4.7-3.6 0-3.7 6.1-9.9 13.9-9.9s11.4 6 12.1 11.5c5.1-.1 6.5-2.5 6.5-4.1zm-10.2 4c-1-5.5-4.9-7.4-8.2-7.4-1 0-2.4.3-3 .6 1.6 2.5 7.5 6.6 11.2 6.8zm-4.8 34.2c8.9-2.8 15.7-10.5 15.7-17.6 0-4.9-2.7-5.5-4-5.5-1.5 0-2.5.4-3.1.8-.8 8.3-4.3 18.8-8.7 22.1l.1.2z"/></svg>